<?xml version="1.0" encoding="UTF-8"?>
<svg id="uuid-a6d278c5-9fd4-4271-9c26-878cf7edce63" data-name="Calque_1" xmlns="http://www.w3.org/2000/svg" width="328.95" height="162.75" viewBox="0 0 328.95 162.75">
  <path id="uuid-2f353a30-47ab-4b12-b94e-71f3bba3ec58" data-name="path109" d="M107.47,84.37c-6.45.45-12.67.98-19.42,1.42-1.73-22.2-3.45-44.1-5.17-66.37,24.98-1.8,49.5-3.6,74.4-5.4,1.73,22.13,3.45,44.02,5.17,66.3-6.52.45-12.67.9-19.27,1.35-1.05-13.57-2.1-26.85-3.15-40.65-2.7.23-5.25.45-8.17.68,1.05,13.65,2.02,26.85,3.08,40.5-6.45.45-12.67.9-19.12,1.35-1.05-13.5-2.1-26.7-3.23-40.35-2.77.15-5.33.3-8.25.52,1.05,13.57,2.1,26.85,3.08,40.5h0l.07.15Z" style="fill: #fff;"/>
  <path id="uuid-f90cc60c-66f7-45b1-a64d-501d6f52b137" data-name="path111" d="M104.55,155.85c-.83-9.9-1.58-19.42-2.4-29.25,4.8-.67,9.45-1.27,14.02-1.95v17.55c3.83-.37,6.67-.6,9.75-.9-.15-3.08-.3-5.77-.52-8.48s-.6-5.4-.9-8.1h-8.4c-.45-3.9-.98-7.8-1.5-12.08,7.87-.6,15.15-1.12,22.8-1.65,1.12,13.73,2.25,27.08,3.37,40.42.3.08.6.15.9.23,6.37-15.6,12.67-31.2,19.27-47.32-7.35.45-14.1.9-21.15,1.35-.37-4.42-.67-8.48-1.05-12.98,13.42-.98,26.4-1.95,40.5-3-.37,3.52,0,6.98-1.12,9.9-4.42,11.7-9.23,23.17-13.87,34.8-.52,1.2-.98,2.48-1.65,4.27,6.52-.45,12.45-.83,18.9-1.2.37,4.05.75,7.95,1.12,12.45-26.1,1.95-51.9,3.9-78.15,5.85" style="fill: #fff;"/>
  <path id="uuid-a4a82e44-ec2b-42b5-9b9e-98bddc0dae5f" data-name="path113" d="M56.4,38.85c6.37-.45,12.68-.82,19.72-1.27,1.2,16.12,2.48,32.25,3.75,48.67-6.6.45-12.82.9-19.42,1.42-.45-5.1-.98-9.98-1.43-15.45-12.37.82-24.52,1.65-37.05,2.55.3,5.02.6,9.67.9,14.77-6.45.45-12.6.9-19.2,1.35-1.2-16.05-2.4-31.65-3.67-47.77,6.6-.45,12.75-.83,18.97-1.28h-.07c.53,4.27,1.12,8.7,1.65,13.5,12.45-.9,24.75-1.8,37.27-2.7-.52-5.02-.98-9.45-1.35-13.87h-.07v.07Z" style="fill: #fff;"/>
  <path id="uuid-9be17183-6251-49fc-b863-8a7fecafebc8" data-name="path115" d="M295.27,48.3c-6.15.23-12.37.45-18.9.68.53,7.8,1.05,14.92,1.5,22.57-6.6.45-12.83.9-19.65,1.35-1.8-23.92-3.6-47.55-5.4-71.47,6.6-.45,12.83-.9,19.58-1.42.75,10.05,1.58,19.95,2.33,30.37,6.45-.45,12.75-.9,19.58-1.35-.37-7.05-.83-13.95-1.2-21.3,7.12-.45,14.03-.97,21.3-1.42.6,7.2,1.12,14.02,1.65,21.3-7.12.53-13.87,1.05-21.15,1.57.3,5.1.67,10.05.9,14.92,0,1.43-.37,2.85-.6,4.27h0l.08-.07Z" style="fill: #fff;"/>
  <path id="uuid-1c95197c-b21b-4835-a449-a3d0c0368f54" data-name="path117" d="M188.55,58.27c-6.37.37-12.67.68-19.5,1.05-.83-11.32-1.73-22.42-2.55-33.75,6.6-.53,12.67-.97,19.2-1.5-.45-6.45-.83-12.75-1.28-19.42,13.58-.9,26.92-1.8,40.5-2.7.53,6.45,1.05,12.6,1.58,19.12,6.6-.37,12.9-.82,19.58-1.2.83,11.32,1.65,22.35,2.47,33.82-6.67.52-13.05,1.05-19.5,1.57v.15c-.83-11.25-1.72-22.5-2.7-33.97-13.58.97-26.78,1.87-40.42,2.85.9,11.62,1.72,22.87,2.55,34.2h.08v-.22Z" style="fill: #fff;"/>
  <path id="uuid-a993077b-8807-4234-8965-54c1cf3999a6" data-name="path119" d="M273.97,143.25c-5.62,2.55-8.78-2.62-12.53-6.3-.67-.67-.9-2.02-.97-3.08-1.12-13.2-2.1-26.4-3.15-39.52-.37-4.8,4.95-11.02,9.75-11.4,5.1-.45,10.2-.82,15.3-1.2,3.75-.3,10.87,5.4,11.25,9.15,1.2,13.58,2.33,27.07,3.37,40.65.3,4.12-5.92,10.58-9.97,10.8-3.97.23-7.95.52-12.97.9h-.08ZM270.9,95.02c.97,12.08,1.87,23.7,2.85,35.62,3.37-.23,6.22-.45,9.45-.67-1.05-12.23-2.03-23.85-3-35.77-3.3.3-6,.52-9.3.83h0Z" style="fill: #fff;"/>
  <path id="uuid-f2503c6f-2a30-4a3b-95db-30e22b8de06e" data-name="path121" d="M9.6,162.75c-1.65-20.62-3.3-40.8-5.03-61.43,11.47-.83,22.65-1.58,33.82-2.33.6,4.5,1.2,8.62,1.8,12.83-6.9.45-13.87.9-21.07,1.42.6,7.27,1.12,14.02,1.65,21,7.12-.52,13.65-.98,20.4-1.42-.37-7.2-.75-14.17-1.12-21.08,4.35-.37,8.62-.67,13.28-1.05.6,7.2,1.12,14.02,1.73,21.23-4.5.37-8.7.67-13.05,1.05v12.45c-6.37.52-13.05,1.12-20.1,1.73.3,4.8.6,9.52.9,14.62" style="fill: #fff;"/>
  <path id="uuid-c9b4aaff-bc42-4b1c-ab37-032f220e8737" data-name="path123" d="M212.4,99.6c4.35-.23,8.7-.45,13.35-.67.67,8.48,1.28,16.73,1.95,25.35-10.28.75-20.03,1.5-30.15,2.25.3,3.15.53,5.92.83,9.15,10.2-.67,20.1-1.35,30.22-2.1.3,4.42.6,8.55.97,13.05-14.55,1.05-28.95,2.1-43.72,3.15-1.28-15.98-2.55-31.58-3.9-47.55,4.65-.37,9-.75,13.28-1.12h-.08c.37,4.05.83,8.25,1.2,12.75,5.78-.45,11.25-.9,17.17-1.35-.37-4.65-.75-8.85-1.12-13.05h-.08v.08l.08.07Z" style="fill: #fff;"/>
  <path id="uuid-b87a16c1-fb7a-424e-a35e-708dbf2bbf9e" data-name="path125" d="M296.85,92.85c-.37-4.35-.67-8.17-.97-12.3,7.95-.6,15.6-1.12,23.7-1.65,1.28,16.12,2.55,31.87,3.83,47.85h4.58c.3,4.2.6,8.1.97,12.67-9.3.67-18.45,1.35-27.83,2.02-.37-4.35-.67-8.33-.97-12.67,3.37-.37,6.6-.67,10.12-1.05-.97-11.85-1.87-23.48-2.85-35.47-3.6.15-6.9.37-10.72.52h0l.15.08Z" style="fill: #fff;"/>
  <path id="uuid-812d1579-bef3-40f2-ba8d-3900984e0dc6" data-name="path127" d="M60.97,159.15c-1.65-20.4-3.23-40.5-4.87-61.12,4.57-.37,8.77-.67,13.43-1.05.52,6.52,1.05,12.67,1.57,19.12,3.98-.3,7.73-.52,11.7-.83.6,4.05,1.12,7.95,1.73,11.77h.08c-4.05.52-8.1,1.05-12.45,1.73.75,9.6,1.57,19.2,2.4,29.25" style="fill: #fff;"/>
  <path id="uuid-23d77915-a984-4e7e-bec9-0e90712bd4bb" data-name="path129" d="M258.22,131.85c.3,4.05.6,7.95.9,12.45-9.45.67-18.75,1.35-28.28,2.02-.37-4.42-.67-8.33-1.05-12.67,3.45-.37,6.75-.75,10.58-1.12-.9-11.48-1.8-22.87-2.78-34.5h-9.53c-.3-4.12-.53-7.95-.83-12.23,7.58-.52,14.85-.98,22.42-1.5,1.35,16.05,2.62,31.65,3.83,47.33,1.72.08,3,.15,4.72.23h0Z" style="fill: #fff;"/>
  <path id="uuid-0b2679fb-116d-4ace-b7a3-df6d4ca54881" data-name="path131" d="M228.97,55.27c.37,6.6.67,13.12,1.05,20.25-13.35.9-26.47,1.87-39.9,2.77-.53-6.9-1.05-13.5-1.58-20.02h-.07c13.5-.9,27.08-1.87,40.65-2.93v-.15h-.08l-.08.07Z" style="fill: #fff;"/>
  <path id="uuid-ab9f9690-459a-477d-8e4c-cecce011fe8a" data-name="path133" d="M18.97,41.85c-.37-6.07-.75-12.15-1.12-18.75,4.35-.3,8.55-.6,12.75-.9,7.2-.53,14.48-.97,21.67-1.57,2.4-.22,3.45.37,3.45,2.93.15,5.1.45,10.2.75,15.3h.07c-.82.15-1.65.45-2.48.52-11.7.82-23.4,1.57-35.1,2.4l.07.07h-.07Z" style="fill: #fff;"/>
  <path id="uuid-3c643219-12a8-440d-a917-8412df1efa18" data-name="path135" d="M295.27,48.38c6.97-.82,14.03-1.57,21.53-2.48.6,7.8,1.12,15.07,1.72,22.8-6.97.52-13.58.98-20.85,1.5-.45-5.55-.75-10.95-1.28-16.28-.15-1.87-.75-3.68-1.12-5.55h0Z" style="fill: #fff;"/>
  <path id="uuid-e52bbfbb-5597-43e1-a654-8926bc6ef1c4" data-name="path137" d="M86.55,157.2c-.45-5.33-1.05-10.5-1.42-15.67-.3-4.8-.45-9.67-.6-14.48h-.08c0,.08,13.2.08,13.2.08.75,9.23,1.58,18.9,2.48,29.02" style="fill: #fff;"/>
  <path id="uuid-e34c3c9f-ffaa-4f62-92c8-277b4b1398a8" data-name="path139" d="M195.3,101.1c-.37-4.05-.67-8.1-1.05-12.75,5.85-.37,11.47-.83,18.22-1.27v12.45h.08c0-.08-17.33,1.42-17.33,1.42h.08v.15Z" style="fill: #fff;"/>
</svg>