<?xml version="1.0" encoding="UTF-8"?>
<svg id="uuid-d85216c0-7f01-4810-b189-c55083f46182" data-name="Calque_1" xmlns="http://www.w3.org/2000/svg" width="158.23mm" height="39.72mm" viewBox="0 0 448.53 112.6">
  <path d="M0,112.6V0h448.53v112.6H0ZM224.2,92.15c56.19,0,112.37,0,168.56,0,1.41,0,2.85.06,4.24-.15,19.3-2.81,32.75-19.56,31.48-39.14-1.2-18.32-17.82-33.38-36.91-33.38-111.46,0-222.92-.03-334.37.02-23.52.01-40.28,20.74-36.72,42.38,2.76,16.78,18.14,30.27,35.18,30.27,56.19,0,112.37,0,168.56,0Z" style="fill: #fff;"/>
  <path d="M224.2,92.15c-56.19,0-112.37,0-168.56,0-17.04,0-32.42-13.5-35.18-30.27-3.56-21.64,13.2-42.37,36.72-42.38,111.46-.06,222.92-.03,334.37-.02,19.1,0,35.72,15.07,36.91,33.38,1.28,19.58-12.17,36.33-31.48,39.14-1.39.2-2.82.15-4.24.15-56.19,0-112.37,0-168.56,0ZM81.34,60.4c-3.44-7.32-6.68-14.12-9.83-20.97-.63-1.38-1.4-2.01-2.99-1.98-5.49.09-10.99.11-16.48,0-1.99-.04-2.55.61-2.53,2.56.08,10.96.04,21.92.05,32.88,0,.73.11,1.45.17,2.25h11.81v-27.99c4.07,7.12,7.77,14.27,11.45,21.42,3.55,6.91,3.54,6.88,11.29,6.78,1.47-.02,2.2-.52,2.81-1.83,2.55-5.49,5.21-10.93,7.84-16.38,1.63-3.38,3.28-6.75,4.92-10.12.19.05.38.1.57.16v27.97h11.43v-37.66c-5.81,0-11.45.08-17.09-.05-1.95-.04-2.97.56-3.79,2.36-3.03,6.72-6.23,13.36-9.63,20.6ZM200.08,62.29c-.06,2.42-.4,3.23-2,3.24-6.65.04-13.29-.06-19.94-.21-1.71-.04-2.85-1.12-2.89-2.86-.09-4.04-.08-8.08,0-12.12.03-1.76,1.19-2.82,2.88-2.87,6.47-.16,12.95-.24,19.42-.23.75,0,1.97.66,2.16,1.27.56,1.81,1.78,1.88,3.26,1.81,1.25-.06,2.5-.01,3.75-.01,6.16,0,6.11.01,4.73-6.16-.79-3.56-2.74-5.81-6.46-6.23-3.05-.35-6.13-.9-9.18-.83-8.38.2-16.77.41-25.12,1.15-4.75.42-6.14,2.34-6.98,7.08-1.29,7.34-1.3,14.7,0,22.04.85,4.8,2.35,6.58,7.13,7.34,11.16,1.78,22.39,1.56,33.59.37,4.13-.44,6.5-3.05,6.99-7.27.46-3.95.48-7.94.81-11.91.16-1.9-.57-2.41-2.41-2.39-7.24.09-14.48.03-21.72.05-.63,0-1.26.15-1.9.23v8.49h13.87ZM354.75,48.94c.81-7.52-1.09-10.71-8.04-11.23-8.26-.62-16.6-.38-24.9-.14-4.02.12-7.43,1.72-8.18,6.47-1.28,8.02-1.41,16.02.03,24.03.65,3.63,2.62,5.98,6.46,6.58,9.26,1.45,18.54,1.7,27.84.44,3.65-.49,5.94-2.61,6.49-6.23.38-2.52.62-5.14.4-7.67-.64-7.29-2.63-9.17-9.88-9.94-7.11-.76-14.17-.86-21.2,1.41,0-.62-.01-1.03,0-1.45.12-4.14.62-4.75,4.76-4.9,3.49-.12,6.99-.03,10.48.02,1.97.02,4.09-.24,5.08,2.18.1.25.7.4,1.08.41,3.15.03,6.3.02,9.58.02ZM359.61,60.32c3.39,0,6.37.02,9.35-.02.43,0,.87-.32,1.28-.53,1.09-.56,2.16-1.61,3.26-1.64,4.82-.13,9.65-.09,14.46.12,2.86.12,3.21.9,3.17,4.36-.03,2.31-.96,3.62-3.39,3.63-4.08.03-8.15.16-12.23.08-1.95-.04-4.31.61-5.35-2.03-.08-.2-.58-.32-.89-.32-3.14-.02-6.28-.01-9.36-.01-1.15,6.77,1.08,10.03,7.37,11.09,1.47.25,2.98.53,4.46.49,7.97-.2,15.94-.35,23.89-.83,3.86-.23,6.42-2.76,6.71-6.56.34-4.32.17-8.72-.19-13.05-.23-2.84-2.21-4.52-5.14-4.93-8.96-1.23-17.88-1.53-26.81.95v-5.04h30.51v-8.7c-1.08,0-1.98,0-2.88,0-5.33,0-10.66,0-15.98,0-6.66,0-13.32,0-19.98.01-1.01,0-2.3-.35-2.29,1.42.02,7.04,0,14.08,0,21.51ZM269.55,75.27c-.16-.66-.18-.99-.32-1.27-5.82-11.72-11.62-23.46-17.55-35.13-.38-.76-1.78-1.38-2.72-1.41-5.23-.14-10.47,0-15.71-.1-1.66-.03-2.5.56-3.23,2.03-5.55,11.31-11.18,22.57-16.78,33.85-.28.56-.45,1.17-.77,2.03,3.13,0,5.98-.27,8.75.07,3.65.44,6.03-.75,7.21-4.23.61-1.79,1.9-2.13,3.68-2.08,4.99.12,10,.33,14.96-.05,3.98-.3,6.68.66,8.09,4.59.26.72,1.36,1.59,2.11,1.62,3.98.16,7.96.08,12.28.08ZM158.25,37.57c-.62-.08-1.02-.18-1.42-.18-12.47,0-24.95.03-37.42-.05-2.05-.01-2.01,1.09-2.01,2.52.02,10.95,0,21.9.02,32.85,0,.8.1,1.59.16,2.37h40.64v-9.09h-28.71v-4.96c1.06,0,1.96,0,2.86,0,4.74,0,9.48.06,14.22-.06.72-.02,2-.79,2.05-1.29.21-2.53.1-5.09.1-7.92h-19.25v-4.97h28.77v-9.22ZM260.95,37.89c.57,1.25.99,1.97,1.23,2.73.82,2.6,2.48,3.51,5.24,3.31,3.64-.26,7.3-.07,10.96-.07,7.56,0,15.11.03,22.67-.03.81,0,2.02-.26,2.35-.81,1.52-2.58-.11-5.14-3.13-5.14-11.88,0-23.75,0-35.63,0-1.07,0-2.13,0-3.69,0ZM266.23,48.48c.8,1.71,1.28,3.13,2.1,4.31.47.67,1.5,1.34,2.28,1.35,10.38.09,20.77.06,31.15.02.58,0,1.43-.24,1.68-.65,1.5-2.48-.17-5.28-3.07-5.28-10.3.02-20.6.03-30.9.06-.95,0-1.9.11-3.25.19ZM270.83,58.37c.69,1.41,1.35,2.46,1.73,3.61.73,2.19,2.05,2.93,4.43,2.87,7.8-.17,15.61-.06,23.42-.06,1.05,0,2.11,0,3.26,0v-6.42h-32.84Z"/>
  <path d="M81.34,60.4c3.4-7.24,6.61-13.88,9.63-20.6.81-1.8,1.84-2.4,3.79-2.36,5.64.13,11.28.05,17.09.05v37.66h-11.43v-27.97c-.19-.05-.38-.1-.57-.16-1.64,3.37-3.29,6.74-4.92,10.12-2.63,5.45-5.3,10.89-7.84,16.38-.61,1.32-1.34,1.82-2.81,1.83-7.75.1-7.74.13-11.29-6.78-3.68-7.15-7.37-14.3-11.45-21.42v27.99h-11.81c-.06-.8-.17-1.53-.17-2.25-.01-10.96.04-21.92-.05-32.88-.01-1.95.55-2.6,2.53-2.56,5.49.12,10.99.1,16.48,0,1.59-.03,2.36.6,2.99,1.98,3.15,6.84,6.39,13.65,9.83,20.97Z" style="fill: #fff;"/>
  <path d="M200.08,62.29h-13.87v-8.49c.64-.08,1.27-.23,1.9-.23,7.24-.02,14.48.04,21.72-.05,1.83-.02,2.56.48,2.41,2.39-.33,3.97-.35,7.96-.81,11.91-.49,4.22-2.86,6.83-6.99,7.27-11.2,1.19-22.43,1.41-33.59-.37-4.78-.76-6.28-2.54-7.13-7.34-1.3-7.34-1.29-14.7,0-22.04.83-4.74,2.23-6.66,6.98-7.08,8.34-.74,16.74-.95,25.12-1.15,3.05-.07,6.13.48,9.18.83,3.72.42,5.67,2.67,6.46,6.23,1.38,6.17,1.43,6.16-4.73,6.16-1.25,0-2.5-.05-3.75.01-1.48.07-2.7,0-3.26-1.81-.19-.61-1.41-1.27-2.16-1.27-6.47-.02-12.95.06-19.42.23-1.68.04-2.84,1.11-2.88,2.87-.08,4.04-.09,8.08,0,12.12.04,1.74,1.18,2.82,2.89,2.86,6.65.14,13.29.25,19.94.21,1.6-.01,1.95-.83,2-3.24Z" style="fill: #fff;"/>
  <path d="M354.75,48.94c-3.28,0-6.43.01-9.58-.02-.37,0-.97-.16-1.08-.41-.99-2.43-3.11-2.16-5.08-2.18-3.49-.04-6.99-.14-10.48-.02-4.13.15-4.63.76-4.76,4.9-.01.41,0,.82,0,1.45,7.03-2.27,14.09-2.17,21.2-1.41,7.25.78,9.24,2.65,9.88,9.94.22,2.53-.02,5.15-.4,7.67-.55,3.62-2.84,5.73-6.49,6.23-9.3,1.26-18.58,1.01-27.84-.44-3.83-.6-5.8-2.95-6.46-6.58-1.44-8-1.31-16.01-.03-24.03.76-4.75,4.16-6.35,8.18-6.47,8.3-.24,16.64-.48,24.9.14,6.95.52,8.85,3.71,8.04,11.23ZM333.67,66.82c2.55-.19,5.11-.38,7.67-.58,1.94-.15,2.44-1.43,2.41-3.1-.03-1.66-.81-2.75-2.52-2.77-4.97-.06-9.95-.07-14.92.01-1.84.03-2.56,1.32-2.53,3.04.03,1.58.59,2.73,2.42,2.85,2.48.16,4.96.36,7.47.55Z" style="fill: #fff;"/>
  <path d="M359.61,60.32c0-7.42.01-14.47,0-21.51,0-1.77,1.28-1.42,2.29-1.42,6.66-.02,13.32-.01,19.98-.01,5.33,0,10.66,0,15.98,0,.9,0,1.79,0,2.88,0v8.7h-30.51v5.04c8.93-2.48,17.85-2.19,26.81-.95,2.93.4,4.91,2.09,5.14,4.93.36,4.33.52,8.73.19,13.05-.3,3.8-2.86,6.33-6.71,6.56-7.95.48-15.92.63-23.89.83-1.48.04-2.99-.24-4.46-.49-6.29-1.06-8.52-4.33-7.37-11.09,3.07,0,6.21,0,9.36.01.31,0,.81.12.89.32,1.05,2.64,3.4,2,5.35,2.03,4.07.08,8.15-.05,12.23-.08,2.43-.02,3.36-1.32,3.39-3.63.04-3.46-.32-4.24-3.17-4.36-4.82-.21-9.65-.26-14.46-.12-1.1.03-2.17,1.08-3.26,1.64-.41.21-.85.52-1.28.53-2.98.05-5.97.02-9.35.02Z" style="fill: #fff;"/>
  <path d="M269.55,75.27c-4.31,0-8.3.08-12.28-.08-.75-.03-1.85-.9-2.11-1.62-1.41-3.93-4.11-4.89-8.09-4.59-4.96.37-9.97.17-14.96.05-1.78-.04-3.07.29-3.68,2.08-1.18,3.48-3.56,4.67-7.21,4.23-2.78-.33-5.62-.07-8.75-.07.32-.86.49-1.47.77-2.03,5.6-11.28,11.24-22.55,16.78-33.85.72-1.47,1.57-2.06,3.23-2.03,5.24.1,10.48-.03,15.71.1.94.02,2.34.65,2.72,1.41,5.93,11.67,11.73,23.4,17.55,35.13.14.28.16.61.32,1.27ZM247.96,58.95c-1.97-4.12-3.7-7.85-5.53-11.53-.8-1.6-1.96-1.52-2.82.15-1.02,1.98-1.94,4.01-2.89,6.02-.82,1.73-1.62,3.47-2.5,5.36h13.74Z" style="fill: #fff;"/>
  <path d="M158.25,37.57v9.22h-28.77v4.97h19.25c0,2.83.11,5.39-.1,7.92-.04.5-1.32,1.27-2.05,1.29-4.74.12-9.48.06-14.22.06-.9,0-1.8,0-2.86,0v4.96h28.71v9.09h-40.64c-.05-.78-.15-1.58-.16-2.37-.01-10.95,0-21.9-.02-32.85,0-1.44-.04-2.54,2.01-2.52,12.47.08,24.95.04,37.42.05.4,0,.8.1,1.42.18Z" style="fill: #fff;"/>
  <path d="M260.95,37.89c1.55,0,2.62,0,3.69,0,11.88,0,23.75,0,35.63,0,3.02,0,4.65,2.56,3.13,5.14-.32.55-1.54.8-2.35.81-7.56.06-15.11.03-22.67.03-3.65,0-7.32-.19-10.96.07-2.76.2-4.42-.71-5.24-3.31-.24-.77-.66-1.48-1.23-2.73Z" style="fill: #fff;"/>
  <path d="M266.23,48.48c1.34-.08,2.3-.18,3.25-.19,10.3-.03,20.6-.04,30.9-.06,2.9,0,4.57,2.79,3.07,5.28-.25.41-1.1.65-1.68.65-10.38.04-20.77.06-31.15-.02-.78,0-1.82-.68-2.28-1.35-.82-1.18-1.3-2.61-2.1-4.31Z" style="fill: #fff;"/>
  <path d="M270.83,58.37h32.84v6.42c-1.16,0-2.21,0-3.26,0-7.81,0-15.61-.11-23.42.06-2.38.05-3.69-.68-4.43-2.87-.38-1.15-1.04-2.2-1.73-3.61Z" style="fill: #fff;"/>
  <path d="M333.67,66.82c-2.52-.19-4.99-.39-7.47-.55-1.82-.12-2.39-1.26-2.42-2.85-.03-1.72.69-3.01,2.53-3.04,4.97-.09,9.95-.07,14.92-.01,1.71.02,2.49,1.11,2.52,2.77.03,1.68-.47,2.95-2.41,3.1-2.56.2-5.12.38-7.67.58Z"/>
  <path d="M247.96,58.95h-13.74c.88-1.89,1.68-3.63,2.5-5.36.95-2.01,1.87-4.04,2.89-6.02.86-1.67,2.02-1.74,2.82-.15,1.84,3.68,3.57,7.41,5.53,11.53Z"/>
</svg>